<svg xmlns="http://www.w3.org/2000/svg" viewBox="0 0 78 78"><defs><style>.cls-1{fill:#f4c625;}</style></defs><g id="Layer_2" data-name="Layer 2"><g id="Layer_1-2" data-name="Layer 1"><circle cx="39" cy="39" r="39"/><path class="cls-1" d="M46.7,38.8a1.06,1.06,0,0,1,0,.31A.55.55,0,0,0,46.7,38.8Z"/><path class="cls-1" d="M39,22C17.26,22,16.88,23.9,16.88,39S17.26,56,39,56,61.12,54.1,61.12,39,60.74,22,39,22Zm7,18.14-10,4.83a1.21,1.21,0,0,1-1.74-1.09V34.42a1.21,1.21,0,0,1,1.72-1.1l10,4.61a1.17,1.17,0,0,1,.67.87.55.55,0,0,1,0,.31A1.19,1.19,0,0,1,46.05,40.11Z"/></g></g></svg>