<svg xmlns="http://www.w3.org/2000/svg" viewBox="0 0 78 78"><defs><style>.cls-1{fill:#f4c625;}</style></defs><g id="Layer_2" data-name="Layer 2"><g id="Layer_1-2" data-name="Layer 1"><circle cx="39" cy="39" r="39"/><path class="cls-1" d="M17.69,29.19a16.25,16.25,0,0,1,1.78-5.63c2.43-3.95,6.21-5.47,10.58-5.58q8.93-.21,17.86,0c4.05.09,7.64,1.43,10.11,4.93a13.1,13.1,0,0,1,2.21,7.51c.09,5.72.13,11.44,0,17.16-.11,4.61-1.71,8.54-6,10.88a13.42,13.42,0,0,1-6.4,1.58c-5.88.07-11.76.13-17.64,0-4.41-.1-8.24-1.59-10.69-5.58a16.23,16.23,0,0,1-1.78-5.64ZM39,22c-2.92,0-5.85-.06-8.76,0-4.56.11-7.37,2.24-8.2,6.17a13.57,13.57,0,0,0-.31,2.54c0,5.53-.1,11.06,0,16.59S24.66,55.77,30,56c6,.23,12,.21,18,0,4.41-.15,7-2.27,7.89-6.09a9.92,9.92,0,0,0,.29-2.08c0-6.3.38-12.61-.19-18.9a7.1,7.1,0,0,0-6.54-6.67C46,21.75,42.47,22.09,39,22Z"/><path class="cls-1" d="M50,39.08a11,11,0,1,1-11-11A11.07,11.07,0,0,1,50,39.08Zm-4.1,0a6.95,6.95,0,1,0-7,6.86A6.94,6.94,0,0,0,45.9,39Z"/><path class="cls-1" d="M50.3,25.16a2.63,2.63,0,1,1-2.67,2.66A2.67,2.67,0,0,1,50.3,25.16Z"/></g></g></svg>