<svg xmlns="http://www.w3.org/2000/svg" viewBox="0 0 359.74 384"><g id="Layer_2" data-name="Layer 2"><g id="Layer_1-2" data-name="Layer 1"><path d="M192.65,0c11.28,1.75,22.71,2.86,33.82,5.37C260.23,13,289.54,29,313.74,54c5.64,5.82,8,12.7,6.48,20.84a5.67,5.67,0,0,0,1,4c19.21,24.62,31.48,52.3,36.07,83.21a199.94,199.94,0,0,1,2.3,28.27c.25,40,.11,80,.11,120v4.22c-.52.33-.75.6-.91.57-5-.93-6.62,1.81-8.15,6.1-5.82,16.27-13.34,31.64-26.29,43.63a31.92,31.92,0,0,1-17.45,8.52c-2.68.38-4.12-.11-4.12-3.41q.12-80.44,0-160.87c0-3,.91-3.63,3.79-3.05,7.76,1.55,12,7.62,16.93,12.81,2.53,2.67,4.79,5.6,7.41,8.7,0-6.35.14-12.13,0-17.91-.31-10.48-.68-21-1.24-31.42-1.59-30-10.15-57.65-27.58-82.33a6.14,6.14,0,0,0-5.46-3c-6.29-.1-11.36-3.09-15.71-7.56a126,126,0,0,0-47.5-30.61c-21.49-7.88-43.63-10.38-66.4-8.35s-44.44,8.33-63.95,20.43c-8.92,5.54-17,12.54-25.08,19.3C72.64,90.55,67,93,60,92.61a5.36,5.36,0,0,0-3.83,2,133.91,133.91,0,0,0-25.06,58c-2.22,13.09-2.91,26.46-3.8,39.74-.82,12.07-1,24.19-1.42,36.29-.05,1.18,0,2.36,0,4.39C35.67,222.8,42.21,210,56.75,205.52V373.26c-8.44-.34-15-4.61-20.67-10.28-9.85-9.81-16.25-21.86-21.57-34.55a93.18,93.18,0,0,1-3.67-9.75c-.75-2.53-1.86-3.82-4.66-3.46a51.75,51.75,0,0,1-6,0V311c0-41.13-.4-82.26.11-123.37C.76,147.24,13.72,111,38.45,79a6.1,6.1,0,0,0,1.3-4.34c-1.86-8.65.89-15.79,7-21.73A178,178,0,0,1,101.35,16.6C122.9,7.32,145.45,2.29,168.76.42A18.61,18.61,0,0,0,170.94,0Z"/><path d="M72.13,384c.06-1.62.15-3.24.15-4.86q0-89.77,0-179.55V194.3c7.11,0,13.92-.06,20.73,0a80.58,80.58,0,0,1,12.25.64c5,.84,7.89,4.54,8.25,9.6.09,1.37,0,2.75,0,4.12,0,53.36-.09,106.71.12,160.06,0,6.84-1.45,12.12-7.86,15.25Z"/><path d="M257,384c-6.38-2.63-8.36-7.46-8.34-14.23.17-54,.1-107.93.1-161.89,0-9.6,4-13.57,13.6-13.57q12,0,23.93,0a8.83,8.83,0,0,1,1.25.35V379.14c0,1.62.1,3.24.15,4.86Z"/></g></g></svg>