<svg xmlns="http://www.w3.org/2000/svg" viewBox="0 0 484.23 229.06"><defs><style>.cls-1{fill:#667378;}</style></defs><g id="Layer_2" data-name="Layer 2"><g id="Layer_1-2" data-name="Layer 1"><polygon class="cls-1" points="302.12 128.74 302.12 18.39 302.12 8.1 302.12 0 222.23 37.25 222.38 37.58 222.23 37.58 222.23 73.57 238.9 73.57 238.9 47.87 285.45 26.16 285.45 100.33 285.45 202.9 238.9 181.19 238.9 155.5 222.23 155.5 222.23 191.48 222.38 191.48 222.23 191.81 302.12 229.06 302.12 220.96 302.12 210.67 302.12 128.74"/><path class="cls-1" d="M470.81,138.26h13.42V90.81H470.81Zm-28.41-23h-7.46v-13.9h7.46q4.14,0,6.24,1.83a6.47,6.47,0,0,1,2.1,5.15,6.37,6.37,0,0,1-2.1,5.12q-2.1,1.8-6.24,1.8m.82-24.47h-21.7v47.45h13.42V125.85h8.28a27.1,27.1,0,0,0,11.18-2.13,16.76,16.76,0,0,0,7.32-6.07,16.55,16.55,0,0,0,2.58-9.29,16.09,16.09,0,0,0-9.9-15.42,27.1,27.1,0,0,0-11.18-2.13M383.9,119.14,390,104l6.1,15.18Zm19.86,19.12h14l-21-47.45H383.49l-20.94,47.45h13.69L380,129H400Zm-52.4,0H367l-20.4-26.44,19.39-21H351.16l-18.37,19.72V90.81H319.5v47.45h13.29V126.4l5-5.36Zm-112.74-4.34V116.29h24.54V112H238.62V95.14h27.52V90.81H233.6v47.45h33.55v-4.34Zm-34.71,4.34h5V95.14H225.6V90.81H187.23v4.33h16.68Zm-49.55-4.34V116.29h24.53V112H154.36V95.14h27.52V90.81H149.34v47.45h33.55v-4.34Zm-47.12,0,31.39-39.66V90.81H101v4.33h31L100.53,134.8v3.46h38.91v-4.34ZM61.76,121.51,73.14,96l11.39,25.48Zm30.3,16.75h5.28L75.65,90.81h-5L49,138.26h5.22l5.69-12.68H86.36Zm-54.44-7.73a20.66,20.66,0,0,1-12.4,3.66,21,21,0,0,1-10.37-2.57,19.06,19.06,0,0,1-7.26-7.05,20.45,20.45,0,0,1,0-20.1,18.58,18.58,0,0,1,7.29-7,21.22,21.22,0,0,1,10.4-2.55,19.53,19.53,0,0,1,14.31,5.56l3.12-3.18a19.85,19.85,0,0,0-7.66-5.12,27.87,27.87,0,0,0-10-1.73A26.37,26.37,0,0,0,12.2,93.52a23.09,23.09,0,0,0-8.95,8.64,25.17,25.17,0,0,0,0,24.74,23,23,0,0,0,9,8.65A26.24,26.24,0,0,0,25,138.67a29.21,29.21,0,0,0,9.56-1.56,23.15,23.15,0,0,0,7.87-4.48v-18.1H37.62Z"/></g></g></svg>