<svg xmlns="http://www.w3.org/2000/svg" viewBox="0 0 902 540.55"><defs><style>.cls-1{fill:#fdfdfd;stroke:#000;stroke-miterlimit:10;stroke-width:2px;}.cls-2{fill:#1d1d1b;}.cls-3{fill:#fefefe;}.cls-4{fill:#e20814;}.cls-5{fill:none;}</style></defs><g id="Layer_2" data-name="Layer 2"><g id="Layer_1-2" data-name="Layer 1"><path class="cls-1" d="M451,539.46q-222.84,0-445.69.09C1.79,539.55,1,538.71,1,535Q1.15,270.28,1,5.58C1,1.84,1.79,1,5.31,1Q451,1.15,896.69,1c3.52,0,4.31.84,4.31,4.58q-.15,264.69,0,529.39c0,3.74-.79,4.58-4.31,4.58Q673.85,539.39,451,539.46Z"/><path class="cls-2" d="M402.59,339.52c4.84-15.74,9.57-31.24,14.43-46.69a15.89,15.89,0,0,0,.44-4.4c.12-4-2-4.42-5.13-3.05-7.08,3.14-11.25,9.37-15.8,15.13-7.51,9.52-12,20.54-15,32.17-1.39,5.55-4,8.32-9.9,7.06a22.44,22.44,0,0,0-3.07-.21c4.68-16.38,9.24-32.62,14-48.8,2.14-7.33.78-9.08-6.76-8.06-.89.12-2.08.44-2.26-1.1-.15-1.21.33-1.65,1.6-1.87,7-1.24,13.94-2.74,20.95-3.85,2-.33,1.07,1.08.74,2.24-2.51,9-4.88,17.94-7,27.11,5.11-8.95,11.08-17.18,18.76-24.08,3.91-3.52,8.36-5.62,13.66-5.34a7.48,7.48,0,0,1,6.95,9.63c-1.94,7.27-3.95,14.52-5.59,21.93a147.11,147.11,0,0,1,16.26-22.15c4.42-4.87,9.71-9.25,17-9.43,4.91-.12,7.4,2.42,7.67,7.27.57,10.59-4.77,19.68-7.41,29.44-1.5,5.58-3.51,11-5.29,16.53-.41,1.26-.94,2.88.37,3.54a3.34,3.34,0,0,0,4-1c2-2.22,4.57-4.06,6.08-6.55,1-1.68,1.45-.38,2.07-.26,1.78.32.4,1.26.12,1.61-4.78,6-9.49,12.27-17.42,14.26-5,1.24-8.56-2.95-7-7.93,4.11-13.2,8.37-26.35,12.57-39.52.25-.76.86-1.52.8-2.24-.16-1.9,1-4.13-1-5.62-2.15-1.66-4.22-.22-5.87.88-7.49,5-13.14,11.85-18,19.27-5.78,8.75-10.77,18-13.44,28.2-1.27,4.85-3.47,7.18-8.6,6.08A26.21,26.21,0,0,0,402.59,339.52Z"/><path class="cls-2" d="M111.36,318c-4.65,5.48-9.85,10.25-14.81,15.26a26,26,0,0,1-13.39,7.41c-9.68,1.95-17.34-7-17.63-15.27-.39-11.09,3.74-20.82,10.38-29.09,7.39-9.19,16.23-16.84,28.33-19.92,7.59-1.93,13,.79,17.8,6.46,2.94-10.47,5.67-20.5,8.59-30.47,1.94-6.6,1.38-7.55-5.3-7.57-1,0-2,0-3,0-.81,0-1.68,0-1.77-1.15s.57-1.4,1.57-1.94c2.73-1.47,5.8-1.19,8.58-1.61,4.75-.72,9.52-1.64,14.67-2.34-6.5,21.89-13,43.37-19.22,64.92-2.67,9.26-6.16,18.31-7.64,27.9-.15,1-1.33,2.06.27,2.9s2.49.13,3.49-.91c2-2.17,4.55-4.06,6.08-6.54,1-1.71,1.52-.3,2.11-.18,1.77.34.28,1.21.06,1.63a26.46,26.46,0,0,1-15,13.18c-5,1.71-8.45-2.56-7.45-8C109,327.73,110.3,323,111.36,318Z"/><path class="cls-2" d="M209.23,275.87c-1.33,4.89-2.58,9.52-4.25,15.66,4.61-4.1,7.74-7.76,11.67-10.48,7.21-5,17.46-7.73,24.79-2.37,6.95,5.07,8.38,12.41,6.84,19.64-3.62,17-12.47,30.67-28.55,38.72-8.51,4.26-17.32,5.29-26.23,1.57-2-.85-2.28.34-2.56,1.24-2.22,7-4.46,14.09-6.34,21.23-1,3.76,2.1,6.39,7.05,6.66,1.26.06,2.64-.5,3.8.58-.23,2.26-1.8,2.41-3.57,2.4-9.15,0-18.31,0-27.46-.05-1,0-2.68.77-2.73-1.05,0-1.2,1.12-1.9,2.47-1.91,7.32,0,9.7-5.15,11.39-11q9.9-34.24,19.76-68.5c1.19-4.17,0-5.23-4.8-5.57-1.62-.12-4.58,1.73-4.81-1.38-.19-2.6,3-2.07,4.53-2.38C196.38,277.63,202.63,276.87,209.23,275.87Z"/><path class="cls-2" d="M695.09,276q-8.46,29.72-16.88,59.25c-2.47,8.65-5.18,17.24-7.57,25.92-1.23,4.48,2.28,5.49,5.5,6.53,1.08.35,3.16-.92,3.08,1.18-.06,1.78-1.94,1.83-3.51,1.83-9.66,0-19.33,0-29,0-.73,0-1.81.4-2.09-.69a1.73,1.73,0,0,1,1.56-2.15c12.83.23,15.15-9.08,17.54-18.72,2.31-9.32,5.17-18.51,7.4-28.05-3.38,4.16-7.33,7.66-11,11.45a29.21,29.21,0,0,1-12.71,7.72,12.4,12.4,0,0,1-13.61-4.63c-6.45-8.62-5-17.55-1.45-26.74,5.88-15.34,15.79-26.67,31.56-32.19,8.56-3,15,.27,18.37,9.65C683,277.68,689,277,695.09,276Z"/><path class="cls-2" d="M400,225.76c7.78-2,8.45-2.83,8.45-11.14V171.84L382,226.8c-8.66-18.58-16.84-36.12-25.53-54.78,0,16.13-.05,30.94,0,45.75,0,5.07,1.91,6.6,8.26,7.65h-21c2.67-1.19,5.93-.46,7.61-3.26s1.09-5.76,1.1-8.68c0-13.49,0-27,0-40.48,0-7-1.67-9.14-8.43-11.21,5,0,10.06.17,15.07-.06,3-.14,3.46,2.12,4.3,3.9q10.08,21.41,20,42.92c.47,1,1.69,1.66,1.66,3,7.47-15.54,15-31,22.34-46.65,1.15-2.44,2.37-3.35,5.07-3.19,4.48.26,9,.07,14.83.07-3.76,1.48-7.05.77-8.74,3.68s-1,5.77-1.05,8.68c-.06,13.5,0,27,0,40.49,0,8.32.6,9.08,8.46,11.12H400Z"/><path class="cls-2" d="M771.13,276.85c-5.12,17.07-10.22,34-15.26,50.92-.59,2-1.6,4.74.51,5.72s4.58-.4,6.09-2.78a25.25,25.25,0,0,1,3.94-4.41c.53-.52.9-2,2.2-.84.89.81.91,1.47.12,2.5-3.83,4.92-7.75,9.64-13.89,11.94-2.74,1-5.48,1.73-7.81-.22s-2.68-4.35-1.88-7.81c1.76-7.64,4.8-14.93,6.44-23.51-6.16,8.76-11.15,17.32-18.42,24.06-3.68,3.4-7.64,6.44-12.67,7.78-3.51.94-6.8,1-9.64-1.58s-3.13-6.18-2.08-9.56q6.21-20,12.88-39.86c.61-1.81,1.5-3.93.24-5-1.71-1.45-4.23-.52-5.89.76-2.34,1.81-4.3,4.12-6.5,6.13-.57.52-.93,2-2.22,1a2,2,0,0,1-.5-3.06c5.36-5.43,10.15-11.75,18.34-13.2,5.77-1,9,2.7,8.33,7.35-1.24,8.18-4.16,15.85-6.57,23.68-2.22,7.22-5.14,14.21-6.83,21.6-.75,3.29.36,4.49,3.49,4.31,6.5-.37,10.12-5.27,13.73-9.54A109.12,109.12,0,0,0,758.44,285C761.07,276.57,761.17,276.6,771.13,276.85Z"/><path class="cls-2" d="M531.37,286.22c-.35-10,7.14-7.92,11.89-11-5.12,20.29-12.07,39.36-16.33,59.42,5.16-.22,6.37-3.88,8.37-6.48.87-1.13,1.07-3.17,3-1.93s.13,2.64-.52,3.56c-3.11,4.43-6.75,8.27-12,10.22-2.43.9-4.81,1.56-6.83-.39s-2.94-3.89-2-7c1-3.34,1.56-6.85,2.89-10.15l-1.32-1c-3,3.3-5.87,6.85-9.18,9.85-5.71,5.18-12.12,9.25-20.19,9.39-8.25.15-14.43-6-14.64-14.37-.3-11.8,4.71-21.56,11.56-30.7s15.55-15.84,26.88-19C521.38,274.19,527.08,276.79,531.37,286.22Z"/><path class="cls-2" d="M359.48,298.2c-.88,20-13.83,36.23-34,41.51-8.48,2.23-16.47,1.52-23.19-4.7-8.13-7.55-8-16.77-5.14-26.54,4.6-16,15.46-26.2,30.63-31.21,12.44-4.12,23.59-1.41,29.66,10.57A19.42,19.42,0,0,1,359.48,298.2Z"/><path class="cls-2" d="M798.71,340.72c-14.87,0-23.72-11.75-20.45-26.56,4.55-20.6,17.2-33.11,37.44-38a23.5,23.5,0,0,1,14.9,1.35c4.88,2.1,6.92,6.92,5.41,12.19-1.92,6.66-6.79,10.76-12.31,14.23-8.21,5.18-17.32,7.75-26.87,8.79-2.59.28-6.52.4-7.06,2a11.39,11.39,0,0,0,1.74,10.69c4.81,6.19,11.37,7.38,18.55,6.07,6.6-1.2,12.31-4.48,17.72-8.36.7-.51,2.06-2,3.23-.18,1,1.5-.32,2.18-1.12,2.81-7.71,6.11-15.09,12.81-25.34,14.46a18.6,18.6,0,0,1-1.85.56C801.38,340.78,800,340.72,798.71,340.72Z"/><path class="cls-2" d="M293.48,237.85c-8.28,28-16.46,55.52-24.6,83.09-.87,2.93-1.67,5.88-2.34,8.86-.35,1.52-.08,3.13,1.53,3.82,1.41.6,2.43-.42,3.46-1.35a26.38,26.38,0,0,0,5.8-7.25c1-1.85,1.92-1.43,3.1-.83,1.69.87.37,2.4,0,2.8-4.84,4.79-8.67,10.72-15.63,13.11-3.12,1.07-5.89.92-8.28-1s-1.85-4.33-1-7c4.53-15.24,8.78-30.56,13.26-45.82,3.44-11.7,7.14-23.33,10.59-35,1.42-4.78.09-6.38-4.85-6.43-.83,0-1.67.06-2.49,0s-2.11.47-2.39-1,.54-1.83,1.93-2.06c5.1-.86,10.12-2.21,15.24-2.78C288.8,238.67,290.74,237.65,293.48,237.85Z"/><path class="cls-2" d="M563.57,281.86H552.83c.54-2.1.92-3.46,3.29-4.22,8.77-2.8,15-8.93,20.08-16.38a23.79,23.79,0,0,1,2-2.74,2.16,2.16,0,0,1,2.69-.61c.87.54.56,1.64.23,2.67-1.63,5.2-3.13,10.44-4.83,16.17,3.48,0,6.6.1,9.71,0,2-.09,2.5.69,2.52,2.59,0,2.06-.78,2.59-2.63,2.47-1.66-.12-3.37.18-5-.07-4.6-.71-6.64.92-7.89,5.68-3.82,14.61-8.3,29-12.63,43.5-.38,1.26-1.5,2.39.13,3.34s3.18,1,4.47-.54c1.8-2.13,4.24-3.62,5.61-6.22.65-1.22,1.61-3.52,3.64-2.31,2.63,1.57-.42,3.06-.93,3.68-3.34,4.05-6.56,8.47-11.49,10.65-3.56,1.59-7.69,2.56-10.9-.89-2.69-2.88-1.81-6.59-.92-9.83,3.69-13.31,7.64-26.55,11.5-39.82C562.09,286.79,562.74,284.64,563.57,281.86Z"/><path class="cls-2" d="M171.54,274.89c-5.28,18.22-10.15,35.28-15.22,52.28-.69,2.33-1.81,4.86.56,6.12,1.91,1,3.88-1,5.18-2.66a49,49,0,0,0,3.72-5.64c.89-1.5,1.79-.66,2.76-.25,1.82.78,0,1.85-.14,2.16a32.09,32.09,0,0,1-15,13.39,7,7,0,0,1-7.84-1.2c-1.84-1.8-2.25-4-1.28-7.06,4.56-14.36,8.61-28.89,12.79-43.38,1.59-5.52-.8-7.87-6.48-6.42-1.25.32-2.54,1.38-3-.74-.38-1.76,1-1.61,2.16-1.82,5.07-.91,10.1-2.13,15.2-2.82A19.73,19.73,0,0,0,171.54,274.89Z"/><path class="cls-2" d="M620.31,275.72c-5.22,17.68-10.25,34.8-15.35,51.91-.63,2.14-1.4,4.62.86,5.72,1.75.84,3.64-.89,4.86-2.42,1.4-1.76,2.59-3.69,3.83-5.58.67-1,1.11-1.33,2.6-.78,2.46.91.29,2.28.18,2.46-3.64,5.52-8.09,10.12-14.33,12.88-3.07,1.35-5.92,1.21-8.26-.66s-2.28-4.23-1.47-7.42c3.63-14.36,9.25-28.12,12.45-42.59,1.46-6.59.05-8.32-6.47-6.82-1.14.26-2.31.91-2.71-.8s.74-1.73,2-1.95c5.08-.89,10.11-2.21,15.23-2.79C615.82,276.65,617.77,275.62,620.31,275.72Z"/><path class="cls-2" d="M536.71,181.1c10.27.05,20.29-1.13,30.25.68,13.41,2.43,20.07,21.18,12.1,33.91-4.4,7-11.29,9.48-18.89,10s-15.32.1-23.36-.19c5.68-.56,5.81-4.23,5.71-8.49q-.33-14,0-28C542.62,184.74,542.08,181.47,536.71,181.1Z"/><path class="cls-2" d="M433.47,203c-.53-11.93,10.22-23.54,23.35-23.42,9.5.09,22.38,10.09,21.79,24.11-.46,11-9.69,23.24-23.29,23.22C445.63,226.92,432.34,216.83,433.47,203Z"/><path class="cls-2" d="M517,180.86h14c-4.57.79-5.7,3.52-5.6,7.95.29,12.44.1,24.9.1,39L494.87,191c-.9,4.44-.27,8.81-.39,13.12-.11,4.49.2,9-.09,13.48-.27,4.32.58,7.46,5.56,8.05H486.16c5.36-.69,5.47-4.41,5.36-8.68-.21-8.32-.39-16.67,0-25,.36-6.83-1.6-8.85-8.52-11.19,3.16,0,6.32-.15,9.46,0,4.16.25,5,4.44,7.1,6.87,7.67,9,14.76,18.46,22.84,28.74,0-11.12.12-21.14-.07-31.16C522.31,182.24,519.51,181.78,517,180.86Z"/><path class="cls-2" d="M280,225.76c4.25-.81,5.66-3,5.57-7q-.31-15.48,0-31c.09-4.08-1.34-6.21-5.45-7,10.8,0,21.59,0,32.39,0,2,0,2,1.13,2,2.56,0,2.3,0,4.61,0,7.35a9.5,9.5,0,0,1-2.06-3.44c-1-2.81-2.78-4.65-6.17-4.5-4,.19-8,.16-12,0-2.19-.08-2.89.62-2.82,2.81.16,4.49.16,9,0,13.49-.08,2.23.68,2.91,2.84,2.78a62.65,62.65,0,0,1,8,0c4.09.26,7-.95,7.92-5.43v14.48c-1.29-8.51-6.73-7.05-11.43-7.08-7.27,0-7.27,0-7.27,7.24,0,12.75,0,12.44,12.79,12.88,6.34.21,9.43-3.53,12.67-7.59.21,6.73-2.22,9.45-8.5,9.45Z"/><path class="cls-2" d="M589,180.78c10,0,20,.19,30-.1,3.76-.11,5.15.87,4.56,4.62a34,34,0,0,0-.05,5.18,5.68,5.68,0,0,1-2-3.23c-1-2.79-2.77-4.67-6.17-4.51-4,.17-8,.14-12,0-2.15-.08-2.92.55-2.84,2.79q.24,6.73,0,13.48c-.07,2.2.62,3,2.82,2.81a60.87,60.87,0,0,1,8,0c4.08.26,6.95-1,7.93-5.43v14.41c-1.27-8.46-6.72-7-11.39-7-7.3,0-7.3,0-7.3,7.22,0,12.77,0,12.46,12.77,12.9,6.34.22,9.43-3.52,12.67-7.55.27,6.61-2.21,9.41-8.45,9.41H590a3.48,3.48,0,0,1-1.29-.34c4.83-.53,6-3.22,5.88-7.65-.32-10-.25-20,0-30C594.6,183.71,593.18,181.57,589,180.78Z"/><path class="cls-2" d="M235,180.93h16.74c-5.27.71-5.42,4.35-5.33,8.61.21,10,.16,19.94,0,29.91,0,3.21,1,4.72,4.28,4.32a4.78,4.78,0,0,1,1,0c8.63.74,16.71.36,20.6-9.55-1,3.34-1.81,6.73-3,10-.58,1.62-2.29,1.56-3.84,1.55-10.14,0-20.27,0-30.7-.28,5.28-.54,5.87-3.84,5.76-8.13q-.35-14.2,0-28.41C240.7,184.66,240,181.5,235,180.93Z"/><path class="cls-2" d="M170.13,261.75a7.5,7.5,0,1,1,7.39-7.48A7.65,7.65,0,0,1,170.13,261.75Z"/><path class="cls-2" d="M626.43,254.36a7.5,7.5,0,1,1-7.26-7.6A7.67,7.67,0,0,1,626.43,254.36Z"/><path class="cls-3" d="M77.48,320.56c.71-11.25,6.23-20.4,12.82-29.08a34.89,34.89,0,0,1,12-10.21,11.89,11.89,0,0,1,12.41.34c4.55,2.77,4.59,7.72,3.63,12-3.34,14.84-12.23,26.34-23.59,36-3.27,2.78-7.42,4.66-12.05,2.25S77.36,325.21,77.48,320.56Z"/><path class="cls-3" d="M236.51,296.94c-1.82,12.79-6.88,26.43-19.7,35.87-6.5,4.78-13.53,5.43-20.87,1.15-2-1.14-3-2.36-2.33-4.18,3.69-10.23,5-21.29,10.88-30.74,4.25-6.89,9.35-12.8,17.49-15.31C231.12,280.92,236.5,284.87,236.51,296.94Z"/><path class="cls-3" d="M641.39,320.94c.67-11,5.4-20.38,11.57-29.19,3-4.28,6.31-8.17,11.3-10.51,3.71-1.74,7.23-2.32,10.67-.23a9.13,9.13,0,0,1,4.45,10.15c-3.06,15.17-9.6,28.5-21.77,38.44-3,2.47-6.75,4.61-11.08,2.17S640.82,325.68,641.39,320.94Z"/><path class="cls-3" d="M486.51,319.12c1.06-9.12,5.75-18.86,12.7-27.63A37.53,37.53,0,0,1,511.68,281c4.2-2.13,8.45-1.93,12,.66,3.72,2.73,3.76,7.52,3.48,11.6-.7,10.45-5.17,19.52-11.72,27.56A34.22,34.22,0,0,1,499,332.42C493.59,334.1,486.2,331.75,486.51,319.12Z"/><path class="cls-3" d="M307.43,322.24c1.07-14.76,6.33-27.85,17.25-37.95,5.36-5,10.91-6.83,17.77-2.51,5.8,3.66,5.61,9.83,4.91,15.42-1.67,13.52-6.81,25.7-17,35.07-7.35,6.76-16.15,6.07-20.9-1.13A14,14,0,0,1,307.43,322.24Z"/><path class="cls-3" d="M817.71,279.74c7.61.06,10.47,4.68,7.74,10.84-4.51,10.19-13.67,14-23.34,17.1a75,75,0,0,1-8.94,2c-1.52.28-3.07.3-2.75-2.12,1.36-10.22,14.08-24.72,24.29-27.52A12.47,12.47,0,0,1,817.71,279.74Z"/><path class="cls-3" d="M575.44,203.54c.19,11.62-8.76,21.94-23.09,20.23-2.56-.31-4-1.17-4-4.28q.29-16.2,0-32.41c0-3.09,1.37-4,4-4.3C565.81,181.44,575.71,189.54,575.44,203.54Z"/><path class="cls-3" d="M471.46,203.94c.24,5.47-.59,10.74-4,15.21-3.73,4.95-9.18,6.53-14.88,5.46-6.46-1.22-9.45-6.55-11.06-12.36a33.25,33.25,0,0,1,.86-20.6c2.23-6.2,7-9.86,13.49-9.87s11.58,3.57,13.56,9.76a53,53,0,0,1,1.93,6.91A32.39,32.39,0,0,1,471.46,203.94Z"/><path class="cls-3" d="M812.22,359.42c1.13-3.16,3-3.08,5-2.28.73.3,1.58,1.47,1,1.94C816.49,360.36,814.47,359.69,812.22,359.42Z"/><path class="cls-4" d="M690.66,347.24H712.2v5.66H705v17.28h-7.08V352.9h-7.23Z"/><path class="cls-4" d="M735.41,370.18h-5.95v-2.7a8.69,8.69,0,0,1-2.68,2.37,7.12,7.12,0,0,1-3.32.7,5.42,5.42,0,0,1-4.13-1.57,6.84,6.84,0,0,1-1.49-4.84V353.56h6.4v9.14a3.34,3.34,0,0,0,.58,2.22,2,2,0,0,0,1.62.66,2.33,2.33,0,0,0,1.87-.88,5,5,0,0,0,.73-3.14v-8h6.37Zm-14.13-22.63h4.07v3.91h-4.07Zm6.63,0H732v3.91h-4.12Z"/><path class="cls-4" d="M742.31,353.56h6v2.72a6.4,6.4,0,0,1,1.78-2.43,3.76,3.76,0,0,1,2.26-.67,6.79,6.79,0,0,1,3.08.88l-2,4.54a5.09,5.09,0,0,0-1.79-.47,2.2,2.2,0,0,0-1.94,1q-1,1.45-1,5.45v5.57h-6.4Z"/><path class="cls-4" d="M760.57,347.24h6.51v11.84l4.76-5.52h7.84l-6,5.82,6.3,10.8h-7.17l-3.37-6.66-2.4,2.34v4.32h-6.51Z"/><path class="cls-4" d="M797.28,363.67l6.06.68a8.53,8.53,0,0,1-1.65,3.28,7.54,7.54,0,0,1-2.91,2.15,11.51,11.51,0,0,1-4.52.77,16.54,16.54,0,0,1-4.4-.49,7.74,7.74,0,0,1-3-1.6,8.2,8.2,0,0,1-2-2.58,11,11,0,0,1,.16-8.21,7.78,7.78,0,0,1,1.75-2.24A8.11,8.11,0,0,1,789,354a12.66,12.66,0,0,1,4.77-.77,11,11,0,0,1,6.2,1.46,7.68,7.68,0,0,1,3,4.26l-6,.79a2.76,2.76,0,0,0-1-1.6,3.31,3.31,0,0,0-2-.54,3.22,3.22,0,0,0-2.56,1.13,5.16,5.16,0,0,0-1,3.43,4.46,4.46,0,0,0,1,3.11,3.19,3.19,0,0,0,2.47,1.06,3.39,3.39,0,0,0,2.11-.64A3.83,3.83,0,0,0,797.28,363.67Zm-7.16,9.1.47-1.84a11.55,11.55,0,0,1,2.75-.36,5.68,5.68,0,0,1,3.69.9,2.79,2.79,0,0,1,1,2.15,3.09,3.09,0,0,1-.46,1.55,3.22,3.22,0,0,1-1.65,1.28,8.64,8.64,0,0,1-3.16.48,25.8,25.8,0,0,1-4.2-.4V374.6a18.24,18.24,0,0,0,3.46.32,3.2,3.2,0,0,0,1.82-.36,1.13,1.13,0,0,0,.48-.94,1,1,0,0,0-.39-.78,1.87,1.87,0,0,0-1.22-.33A15.92,15.92,0,0,0,790.12,372.77Z"/><path class="cls-4" d="M827.66,363.45H814.89a4.06,4.06,0,0,0,.83,2.28,3,3,0,0,0,2.41,1.08,3.54,3.54,0,0,0,1.78-.47,4.07,4.07,0,0,0,1.11-1l6.28.58a8.93,8.93,0,0,1-3.48,3.59,12.52,12.52,0,0,1-5.83,1.09,12,12,0,0,1-5.2-.93,7.64,7.64,0,0,1-3.13-3,8.92,8.92,0,0,1-1.25-4.76,8.32,8.32,0,0,1,2.5-6.3,9.49,9.49,0,0,1,6.89-2.42,12.09,12.09,0,0,1,5.63,1.09,7.25,7.25,0,0,1,3.15,3.12,11.47,11.47,0,0,1,1.08,5.34Zm-6.48-3.05a4.37,4.37,0,0,0-1-2.65,3.14,3.14,0,0,0-4.55.41,4.35,4.35,0,0,0-.73,2.24Z"/><path class="cls-5" d="M685.46,345.76q-.5,13.5-1,27c64.27-1.25,90.26.82,98,4a25.17,25.17,0,0,0,12,2,26.82,26.82,0,0,0,14-6l21,4a27.9,27.9,0,0,0-1-17,26.36,26.36,0,0,0-5-8,145.08,145.08,0,0,1-17,0c-7.76-.46-8-1.1-13-1-11,.21-13.23,3.38-18,1-2.59-1.31-3.4-3-9-6-3.34-1.81-4.44-2-5-2-4.31-.35-5.71,3.34-10,5-6.1,2.36-9.59-2.67-22-4-3.48-.38-4.27-.1-11,0-6.33.09-15.51,0-27-1Z"/></g></g></svg>