<svg xmlns="http://www.w3.org/2000/svg" viewBox="0 0 78 78"><defs><style>.cls-1{fill:#f4c625;}</style></defs><g id="Layer_2" data-name="Layer 2"><g id="Layer_1-2" data-name="Layer 1"><path d="M78,39A39,39,0,1,1,39,0,39,39,0,0,1,78,39"/><path class="cls-1" d="M17.24,29.54l14.63,9.65c-.06.15-.19.18-.29.24l-14,8.88c-.1.06-.19.18-.33.15Z"/><path class="cls-1" d="M39,24H57.85a2.72,2.72,0,0,1,2.79,2,.37.37,0,0,1-.2.47q-10.57,7-21.15,14a.43.43,0,0,1-.56,0L17.61,26.52a.41.41,0,0,1-.22-.54,2.72,2.72,0,0,1,2.37-2H39Z"/><path class="cls-1" d="M39,54H20.14a2.71,2.71,0,0,1-2.68-1.77c-.13-.35-.12-.56.24-.79q8.21-5.16,16.39-10.38a.48.48,0,0,1,.63,0c1.07.73,2.18,1.43,3.25,2.17a1.64,1.64,0,0,0,2.07,0c1.08-.75,2.19-1.45,3.28-2.19a.44.44,0,0,1,.56,0q8.26,5.25,16.53,10.48a.4.4,0,0,1,.21.54A2.7,2.7,0,0,1,58.28,54c-.2,0-.4,0-.6,0Z"/><path class="cls-1" d="M46.11,39.22l14.65-9.67v19Z"/></g></g></svg>