<svg xmlns="http://www.w3.org/2000/svg" viewBox="0 0 78 78"><defs><style>.cls-1{fill:#f4c625;}</style></defs><g id="Layer_2" data-name="Layer 2"><g id="Layer_1-2" data-name="Layer 1"><path d="M78,39A39,39,0,1,1,39,0,39,39,0,0,1,78,39"/><path class="cls-1" d="M57.71,22.75a2.55,2.55,0,0,0-2.5-1.47,5.45,5.45,0,0,0-1.72.31c-.25.1-25.34,9.68-35.63,13.91A2.93,2.93,0,0,0,16.12,37a2,2,0,0,0,1,2.37,98.74,98.74,0,0,0,9.54,3.17c.55,1.83,2.47,8.2,3.36,10.93a1.79,1.79,0,0,0,1.84,1.13h.22a.93.93,0,0,0,.62-.33.91.91,0,0,0,.23-.54l.54-7.7,4.08,3.06c3.2,2.39,7,5.23,9.15,6.77a3.78,3.78,0,0,0,2.18.83,3,3,0,0,0,2.73-2.46C53.4,47.38,56,34.38,57.55,26.61l.34-1.7A3.29,3.29,0,0,0,57.71,22.75Zm-26,21.44L31.25,51c-1.16-3.71-2.87-9.41-2.89-9.48s0,0,0,0v0L47.94,28.68a9.72,9.72,0,0,1,1.84-1c.69-.15.85.12.73.28a32.47,32.47,0,0,1-2.72,2.58l-15.64,13h0A1,1,0,0,0,31.72,44.19Z"/></g></g></svg>